<?xml version="1.0" encoding="UTF-8"?>
<svg id="Layer_2" data-name="Layer 2" xmlns="http://www.w3.org/2000/svg" viewBox="0 0 2688.65 1500">
  <defs>
    <style>
      .cls-1 {
        fill: #000000;
        stroke-width: 0px;
      }
    </style>
  </defs>
  <g id="Layer_1-2" data-name="Layer 1">
    <g>
      <path class="cls-1" d="M2064.86,1297.22c8.17-6.71,12.23-15.65,12.23-26.83,0-5.15-.81-9.69-2.45-13.6-1.65-3.85-3.7-7.02-6.09-9.5-2.42-2.48-5.75-4.66-9.97-6.58-4.25-1.99-8.23-3.42-11.99-4.41-3.79-1.06-8.54-2.05-14.32-3.1-12.33-2.36-21.15-5.16-26.36-8.39-5.25-3.23-7.86-8.38-7.86-15.47s2.76-12.67,8.29-16.83c5.53-4.16,13.07-6.27,22.58-6.27s16.68,2.36,22.51,6.96c5.81,4.66,9.25,11.37,10.31,20.06h11.46c-1.15-11.3-5.5-20.25-12.95-26.89-7.48-6.64-17.98-10-31.49-10-12.61,0-22.76,3.04-30.53,9.19-7.76,6.09-11.65,14.16-11.65,24.16s3.32,17.76,9.97,22.61c6.64,4.78,16.55,8.51,29.72,11.12,14.72,2.92,24.84,6.15,30.43,9.69,5.59,3.54,8.39,9.44,8.39,17.83s-3.01,14.84-9.01,19.5c-5.99,4.6-13.76,6.96-23.29,6.96-11.86,0-21.24-2.92-28.13-8.76-6.86-5.84-10.62-14.04-11.21-24.59h-11.8c.68,12.92,5.4,23.35,14.1,31.3,8.7,7.95,20.99,11.93,36.89,11.93,13.29,0,24-3.36,32.2-10.06Z"/>
      <path class="cls-1" d="M2116.63,1305.66c3.76,0,7.11-.5,10.06-1.55v-9.38h-.53c-2.11.93-4.53,1.43-7.24,1.43-3.04,0-5.28-.62-6.71-1.93-1.4-1.3-2.11-3.54-2.11-6.71v-64.78h16.92v-9.01h-16.92v-28.01h-10.93v28.01h-13.76v9.01h13.76v66.52c0,10.93,5.81,16.4,17.45,16.4Z"/>
      <path class="cls-1" d="M2219.14,1259.45c0-13.85-3.79-25.34-11.4-34.28-7.58-9.01-17.79-13.54-30.59-13.54s-23.23,4.53-30.9,13.54c-7.64,8.94-11.46,20.43-11.46,34.28s3.82,25.34,11.46,34.35c7.67,8.94,17.95,13.48,30.9,13.48s23.01-4.53,30.59-13.48c7.61-9.01,11.4-20.43,11.4-34.35ZM2177.15,1298.08c-9.91,0-17.55-3.6-22.95-10.93-5.4-7.27-8.11-16.52-8.11-27.7s2.7-20.37,8.11-27.7c5.4-7.27,13.04-10.93,22.95-10.93s17.33,3.66,22.76,10.93c5.4,7.33,8.1,16.52,8.1,27.7s-2.7,20.43-8.1,27.7c-5.43,7.33-13.01,10.93-22.76,10.93Z"/>
      <path class="cls-1" d="M2243.86,1253.12c0-10.5,3.94-18.63,11.8-24.53,5.78-4.1,12.24-5.59,19.41-4.41v-10.74c-.93-.25-1.93-.37-2.98-.37-12.36,0-21.65,5.9-27.89,17.64h-.34v-16.96h-10.96v91.24h10.96v-51.86Z"/>
      <path class="cls-1" d="M2377.76,1221.2c5.78,0,10.4,1.68,13.94,5.03,3.54,3.36,5.28,8.32,5.28,14.91v63.85h10.78v-64.78c0-8.88-2.58-15.9-7.76-20.87-5.19-5.03-11.77-7.52-19.75-7.52-13.2,0-22.95,5.53-29.32,16.58h-.34c-1.77-5.28-4.81-9.38-9.16-12.23-4.35-2.92-9.41-4.35-15.19-4.35-11.89,0-21.12,5.22-27.7,15.71h-.34v-13.79h-10.96v91.24h10.96v-58.07c0-7.14,2.58-13.23,7.76-18.26,5.15-4.97,11.12-7.45,17.82-7.45,5.53,0,9.97,1.68,13.29,5.03,3.36,3.36,5.03,8.32,5.03,14.91v63.85h10.96v-58.07c0-7.82,2.36-14.1,7.14-18.76,4.75-4.66,10.62-6.96,17.55-6.96Z"/>
      <rect class="cls-1" x="2425.93" y="1178.84" width="10.93" height="15.53"/>
      <rect class="cls-1" x="2425.93" y="1213.74" width="10.93" height="91.24"/>
      <path class="cls-1" d="M2526.3,1304.98v-64.78c0-8.88-2.67-15.9-8.01-20.87-5.34-5.03-12.39-7.52-21.09-7.52-13.17,0-23.35,5.28-30.53,15.9h-.34v-13.97h-10.96v91.24h10.96v-57.89c0-7.39,2.73-13.6,8.2-18.51,5.47-4.97,12.14-7.39,20.03-7.39,13.88,0,20.81,6.71,20.81,20.06v63.72h10.93Z"/>
      <path class="cls-1" d="M2618.59,1213.74h-10.78v14.16h-.53c-6.46-10.74-16.12-16.09-28.94-16.09-11.06,0-20.34,4.1-27.86,12.23-7.55,8.2-11.3,19.44-11.3,33.66,0,13.48,3.57,24.47,10.68,32.85,7.11,8.45,16.62,12.67,28.48,12.67s22.02-5.34,28.94-15.9h.53v14.47c0,8.2-2.39,14.66-7.14,19.25-4.75,4.53-11.89,6.83-21.43,6.83-15.31,0-23.82-4.91-25.59-14.78h-10.59c.81,7.02,4.41,12.79,10.78,17.2,6.34,4.41,14.94,6.58,25.74,6.58,13.42,0,23.6-3.66,30.53-10.93,5.65-6.21,8.48-14.41,8.48-24.53v-87.7ZM2601.11,1284.24c-4.94,6.52-12.33,9.81-22.23,9.81-9.29,0-16.33-3.36-21.15-10-4.84-6.65-7.24-15.34-7.24-26.15s2.52-20.31,7.58-26.96c5.06-6.65,12.05-9.94,20.99-9.94,9.66,0,16.96,3.29,21.95,9.88,5,6.58,7.52,15.47,7.52,26.64s-2.48,20.18-7.42,26.71Z"/>
      <rect class="cls-1" x="1981.67" y="1371.56" width="11.8" height="126.14"/>
      <path class="cls-1" d="M2056.48,1404.54c-13.17,0-23.35,5.28-30.53,15.9h-.34v-13.97h-10.96v91.24h10.96v-57.88c0-7.39,2.73-13.6,8.2-18.51,5.47-4.97,12.14-7.39,20.03-7.39,13.88,0,20.81,6.71,20.81,20.06v63.72h10.93v-64.78c0-8.88-2.67-15.9-8.01-20.87-5.34-5.03-12.39-7.52-21.09-7.52Z"/>
      <path class="cls-1" d="M2145.04,1404.54c-13.17,0-23.35,5.28-30.53,15.9h-.34v-13.97h-10.96v91.24h10.96v-57.88c0-7.39,2.73-13.6,8.2-18.51,5.47-4.97,12.14-7.39,20.03-7.39,13.88,0,20.81,6.71,20.81,20.06v63.72h10.93v-64.78c0-8.88-2.67-15.9-8.01-20.87-5.34-5.03-12.39-7.52-21.09-7.52Z"/>
      <path class="cls-1" d="M2229.39,1404.35c-12.95,0-23.23,4.53-30.9,13.54-7.64,8.94-11.46,20.43-11.46,34.28s3.82,25.34,11.46,34.35c7.67,8.94,17.95,13.48,30.9,13.48s23.01-4.53,30.59-13.48c7.61-9.01,11.4-20.43,11.4-34.35s-3.79-25.34-11.4-34.28c-7.58-9.01-17.79-13.54-30.59-13.54ZM2252.15,1479.88c-5.43,7.33-13.01,10.93-22.76,10.93s-17.55-3.6-22.95-10.93c-5.4-7.27-8.1-16.52-8.1-27.7s2.7-20.37,8.1-27.7c5.4-7.27,13.04-10.93,22.95-10.93s17.33,3.66,22.76,10.93c5.4,7.33,8.11,16.52,8.11,27.7s-2.7,20.43-8.11,27.7Z"/>
      <path class="cls-1" d="M2320.97,1464.35c-1.99,5.9-4.53,13.6-7.58,23.1h-.37l-7.39-23.1-19.6-57.89h-11.65l32.3,91.24h12.89l32.98-91.24h-11.12l-20.46,57.89Z"/>
      <path class="cls-1" d="M2432.82,1490.31c-4.01-.25-5.99-2.92-5.99-7.95v-49.56c0-18.82-10.78-28.26-32.3-28.26-11.4,0-20.18,2.61-26.27,7.76-6.12,5.16-9.47,12.3-10.06,21.37h10.75c.84-13.54,9.35-20.31,25.59-20.31,14.6,0,21.89,6.15,21.89,18.38v1.74c0,4.35-1.65,7.2-4.88,8.57-3.23,1.37-9.78,2.61-19.66,3.79-5.9.68-10.81,1.55-14.75,2.55-3.94.99-7.83,2.48-11.65,4.47-3.82,2.05-6.64,4.84-8.45,8.38-1.83,3.6-2.73,8.01-2.73,13.17,0,8.26,2.76,14.53,8.29,18.88,5.53,4.35,12.7,6.52,21.52,6.52,13.88,0,24.53-5.22,31.92-15.71h.53v1.99c.46,8.57,4.94,12.86,13.41,12.86,2.83,0,5.31-.5,7.42-1.43v-7.95h-.53c-2.14.5-3.48.74-4.07.74ZM2416.58,1464.72c0,6.83-2.73,12.92-8.2,18.26-5.47,5.34-12.92,8.01-22.33,8.01-13.51,0-20.28-5.53-20.28-16.58,0-3.04.5-5.71,1.49-7.95.99-2.24,2.17-3.98,3.54-5.28,1.33-1.31,3.35-2.42,5.99-3.36,2.64-.93,5.06-1.68,7.24-2.11,2.17-.5,5.15-.93,8.91-1.43,11.3-1.49,19.16-3.54,23.63-5.96v16.4Z"/>
      <path class="cls-1" d="M2463.35,1378.45h-10.93v28.01h-13.76v9.01h13.76v66.52c0,10.93,5.81,16.4,17.45,16.4,3.76,0,7.11-.5,10.06-1.55v-9.38h-.53c-2.11.93-4.53,1.43-7.24,1.43-3.04,0-5.28-.62-6.71-1.93-1.4-1.3-2.11-3.54-2.11-6.71v-64.78h16.92v-9.01h-16.92v-28.01Z"/>
      <rect class="cls-1" x="2494.93" y="1371.56" width="10.93" height="15.53"/>
      <rect class="cls-1" x="2494.93" y="1406.46" width="10.93" height="91.24"/>
      <path class="cls-1" d="M2561.98,1404.35c-12.95,0-23.23,4.53-30.9,13.54-7.64,8.94-11.46,20.43-11.46,34.28s3.82,25.34,11.46,34.35c7.67,8.94,17.95,13.48,30.9,13.48s23.01-4.53,30.59-13.48c7.61-9.01,11.4-20.43,11.4-34.35s-3.79-25.34-11.4-34.28c-7.58-9.01-17.79-13.54-30.59-13.54ZM2584.74,1479.88c-5.43,7.33-13.01,10.93-22.76,10.93s-17.55-3.6-22.95-10.93c-5.4-7.27-8.11-16.52-8.11-27.7s2.7-20.37,8.11-27.7c5.4-7.27,13.04-10.93,22.95-10.93s17.33,3.66,22.76,10.93c5.4,7.33,8.11,16.52,8.11,27.7s-2.7,20.43-8.11,27.7Z"/>
      <path class="cls-1" d="M2680.63,1412.05c-5.34-5.03-12.39-7.52-21.08-7.52-13.17,0-23.35,5.28-30.53,15.9h-.34v-13.97h-10.96v91.24h10.96v-57.88c0-7.39,2.73-13.6,8.2-18.51,5.47-4.97,12.14-7.39,20.03-7.39,13.88,0,20.81,6.71,20.81,20.06v63.72h10.93v-64.78c0-8.88-2.67-15.9-8.01-20.87Z"/>
      <path class="cls-1" d="M138.71,240.41H33.9v52.37h104.81v138.71h92.47v-138.71h178.74v138.71h86.3v-138.71h138.71v138.71h86.3v-138.71h47.19c3.83,38.47,19.81,71.66,48.05,99.57,32.67,32.29,72.84,48.37,120.53,48.37,55.47,0,99.64-18.47,132.54-55.47,13.56-16.02,23.83-34.55,30.8-55.47h-92.47c-3.68,6.97-8.62,13.17-14.79,18.47-15.63,12.33-34.32,18.53-56.08,18.53-19.73,0-37.19-7.23-52.4-21.57-15.21-14.4-24.47-31.9-27.74-52.43h949.31v-52.37h-705.69c-5.87-32.32-20.5-60.47-43.89-84.46-31.25-32.09-71.13-48.11-119.59-48.11s-87.85,16.14-120.53,48.43c-24.4,24.06-39.67,52.13-45.85,84.14h-49.39c0-43.2-10.78-76.07-32.38-98.67-21.57-22.6-51.89-33.9-90.92-33.9-27.93,0-53.21,8.85-75.81,26.54-9.88,7.81-17.47,16.4-22.83,25.89h-3.07V0h-86.3v240.41h-178.74V86.27h138.67V0H0v86.27h138.71v154.14ZM887.67,198.5c13.56-11.11,29.99-16.66,49.33-16.66s35.65,5.62,49.01,16.92c13.33,11.3,21.67,25.18,24.96,41.65h-151.04c4.94-16.85,14.17-30.87,27.74-41.91ZM517.79,205.28c14.4-15.63,31.83-23.44,52.4-23.44s36.49,6.07,47.79,18.15c9.16,9.84,14.41,23.43,16.15,40.42h-134.69c3.34-13.4,9.23-25.25,18.35-35.13Z"/>
      <path class="cls-1" d="M194.18,978.05c55.5,0,98.64-13.04,129.47-39.13,30.8-26.09,46.23-58.25,46.23-96.47,0-10.72-1.36-20.66-4-29.9-2.68-9.23-5.68-17.37-8.94-24.34-3.29-6.97-8.75-13.88-16.34-20.66-7.62-6.78-13.79-12.2-18.5-16.34-4.71-4.13-12.75-8.52-24.05-13.24-11.3-4.71-19.31-8.27-24.02-10.53-4.75-2.2-13.79-5.23-27.12-8.91-13.37-3.68-21.79-5.94-25.28-6.78-3.49-.84-12.24-2.84-26.18-6.13-54.27-12.33-81.4-30.41-81.4-54.31,0-13.11,5.97-24.09,17.89-32.93,11.91-8.85,29.58-13.3,53.02-13.3,30.41,0,53.4,8.27,69.03,24.67,7.01,7.81,11.72,16.08,14.17,24.67h95.57c-5.78-24.21-15.63-46.23-29.61-65.93-33.67-44.43-83.43-66.58-149.17-66.58-50.56,0-90.92,12.85-121.14,38.49-30.19,25.7-45.3,57.02-45.3,94.02,0,62.06,42.75,103.38,128.21,123.92,1.65.39,3.62.9,5.88,1.55,2.23.58,4.1,1.1,5.52,1.55,1.45.39,3.39.84,5.88,1.23,17.24,4.52,31.32,8.33,42.23,11.36,10.88,3.1,22.18,7.1,33.9,12.08,11.72,4.91,20.34,10.65,25.9,17.24,5.52,6.59,8.3,13.95,8.3,22.15,0,32.93-26.7,49.33-80.14,49.33-35.74,0-62.67-10.65-80.75-32.03-8.2-9.49-14.17-20.34-17.86-32.68H0c6.17,27.96,17.27,52.63,33.29,73.94,34.13,49.33,87.76,74,160.89,74Z"/>
      <polygon class="cls-1" points="619.53 965.71 619.53 891.71 527.06 891.71 527.06 725.3 615.85 725.3 615.85 651.3 527.06 651.3 527.06 583.5 440.75 583.5 440.75 651.3 400.68 651.3 400.68 725.3 440.75 725.3 440.75 965.71 619.53 965.71"/>
      <path class="cls-1" d="M699.66,690.49c-32.9,32.22-49.34,71.61-49.34,118.04s16.43,85.75,49.34,118.04c32.87,32.29,73.97,48.37,123.27,48.37s89.89-16.08,122.98-48.37c33.06-32.29,49.63-71.61,49.63-118.04s-16.56-85.82-49.63-118.04c-33.09-32.29-74.07-48.43-122.98-48.43s-90.4,16.14-123.27,48.43ZM906.17,808.54c0,27.12-8.04,49.27-24.05,66.58-16.02,17.24-35.74,25.9-59.18,25.9s-43.14-8.65-59.18-25.9c-16.01-17.31-24.02-39.45-24.02-66.58s8.01-49.33,24.02-66.58c16.05-17.31,35.77-25.89,59.18-25.89s43.17,8.59,59.18,25.89c16.01,17.24,24.05,39.45,24.05,66.58Z"/>
      <path class="cls-1" d="M1044.88,651.3v314.41h86.3v-166.41c0-22.21,6.46-39.58,19.4-52.11,12.95-12.53,31.16-18.79,54.57-18.79h46.23v-83.24h-37c-25.47,0-46.62,8.85-63.48,26.48-7.39,7.43-12.95,16.08-16.66,25.9h-3.07v-46.24h-86.3Z"/>
      <path class="cls-1" d="M1806.18,965.71v-191.08c0-42.75-10.59-75.55-31.77-98.35-21.15-22.79-50.63-34.22-88.43-34.22-30.83,0-57.34,9.88-79.52,29.58-9.04,8.65-16.43,18.34-22.21,28.99h-3.07c-5.75-10.65-13.14-20.34-22.18-28.99-22.21-19.7-49.76-29.58-82.62-29.58-27.54,0-51.37,8.85-71.48,26.54-8.23,6.97-15.21,15.63-20.99,25.89h-3.07v-43.2h-86.31v314.41h86.31v-169.51c0-23.83,6.55-43.14,19.73-57.99,13.14-14.79,29.19-22.15,48.08-22.15,39.03,0,58.57,22.6,58.57,67.8v181.84h86.3v-169.51c0-23.83,6.55-43.14,19.73-57.99,13.14-14.79,29.16-22.15,48.08-22.15,39.04,0,58.57,22.6,58.57,67.8v181.84h86.3Z"/>
      <path class="cls-1" d="M1806.18,1308.92c0-42.75-10.59-75.55-31.77-98.35-21.15-22.79-50.63-34.22-88.43-34.22-30.83,0-57.34,9.88-79.52,29.57-9.04,8.65-16.43,18.34-22.21,28.99h-3.07c-5.75-10.65-13.14-20.34-22.18-28.99-22.21-19.7-49.76-29.57-82.62-29.57-27.54,0-51.37,8.85-71.48,26.54-8.23,6.97-15.21,15.63-20.99,25.9h-3.07v-43.2h-86.31v262.04H373.34l-65.13-101.77c29.61-11.04,53.44-27.9,71.52-50.5,18.08-22.6,27.12-49.98,27.12-82.01,0-41.07-15.4-75.49-46.24-103.25-30.83-27.77-71.94-41.59-123.3-41.59H33.9v431.49h1824.65v-52.37h-52.37v-138.71ZM126.37,1154.79h107.87c25.47,0,44.68,5.23,57.63,15.76,12.95,10.46,19.44,24.73,19.44,42.81s-6.49,32.35-19.44,42.81c-12.95,10.53-32.16,15.76-57.63,15.76h-107.87v-117.14ZM126.37,1447.63v-89.44h86.3l56.37,89.44H126.37ZM1380.83,1447.63v-117.14c0-23.83,6.55-43.14,19.73-57.99,13.14-14.79,29.19-22.15,48.08-22.15,39.03,0,58.57,22.6,58.57,67.8v129.47h-126.37ZM1593.5,1447.63v-117.14c0-23.83,6.55-43.14,19.73-57.99,13.14-14.79,29.16-22.15,48.08-22.15,39.04,0,58.57,22.6,58.57,67.8v129.47h-126.37Z"/>
      <rect class="cls-1" x="1858.55" y="1346.7" width="52.37" height="100.58"/>
    </g>
  </g>
</svg>